<?xml version="1.0" encoding="UTF-8" standalone="no"?>
<!-- Created with Inkscape (http://www.inkscape.org/) -->

<svg
   xmlns:dc="http://purl.org/dc/elements/1.1/"
   xmlns:cc="http://creativecommons.org/ns#"
   xmlns:rdf="http://www.w3.org/1999/02/22-rdf-syntax-ns#"
   xmlns:svg="http://www.w3.org/2000/svg"
   xmlns="http://www.w3.org/2000/svg"
   xmlns:sodipodi="http://sodipodi.sourceforge.net/DTD/sodipodi-0.dtd"
   xmlns:inkscape="http://www.inkscape.org/namespaces/inkscape"
   width="210mm"
   height="297mm"
   viewBox="0 0 744.09448819 1052.3622047"
   id="svg11570"
   version="1.1"
   inkscape:version="0.91 r13725"
   sodipodi:docname="samochod.svg">
  <defs
     id="defs11572">
    <clipPath
       clipPathUnits="userSpaceOnUse"
       id="clipPath3866">
      <path
         d="m 446.516,229.81 72.838,0 0,-77.548 -72.838,0 0,77.548 z"
         id="path3868"
         inkscape:connector-curvature="0" />
    </clipPath>
    <clipPath
       clipPathUnits="userSpaceOnUse"
       id="clipPath3918">
      <path
         d="m 469.671,229.81 23.155,0 0,-55 -23.155,0 0,55 z"
         id="path3920"
         inkscape:connector-curvature="0" />
    </clipPath>
  </defs>
  <sodipodi:namedview
     id="base"
     pagecolor="#ffffff"
     bordercolor="#666666"
     borderopacity="1.0"
     inkscape:pageopacity="0.0"
     inkscape:pageshadow="2"
     inkscape:zoom="0.35"
     inkscape:cx="375"
     inkscape:cy="520"
     inkscape:document-units="px"
     inkscape:current-layer="layer1"
     showgrid="false"
     inkscape:window-width="1440"
     inkscape:window-height="837"
     inkscape:window-x="-8"
     inkscape:window-y="-8"
     inkscape:window-maximized="1" />
  <metadata
     id="metadata11575">
    <rdf:RDF>
      <cc:Work
         rdf:about="">
        <dc:format>image/svg+xml</dc:format>
        <dc:type
           rdf:resource="http://purl.org/dc/dcmitype/StillImage" />
        <dc:title></dc:title>
      </cc:Work>
    </rdf:RDF>
  </metadata>
  <g
     inkscape:label="Layer 1"
     inkscape:groupmode="layer"
     id="layer1">
    <g
       id="g11267"
       transform="matrix(3.1359563,0,0,-3.1359563,916.30753,1902.8043)"
       inkscape:export-xdpi="90"
       inkscape:export-ydpi="90">
      <g
         transform="translate(-192.88551,521.0477)"
         id="g3858">
        <path
           inkscape:connector-curvature="0"
           id="path3860"
           style="fill:#ffd55c;fill-opacity:1;fill-rule:nonzero;stroke:none"
           d="m 0,0 c -27.795,0 -50.328,-22.531 -50.328,-50.328 0,-27.795 22.533,-50.328 50.328,-50.328 27.796,0 50.329,22.533 50.329,50.328 C 50.329,-22.531 27.796,0 0,0" />
      </g>
      <g
         style="opacity:0.15899999;fill:#000000"
         transform="translate(-662.55641,268.41)"
         id="g3862">
        <g
           style="fill:#000000"
           id="g3864" />
        <g
           style="fill:#000000"
           id="g3870">
          <g
             style="fill:#000000"
             id="g3872"
             clip-path="url(#clipPath3866)">
            <g
               style="fill:#000000"
               id="g3874"
               transform="translate(518.6211,195.0078)">
              <path
                 inkscape:connector-curvature="0"
                 id="path3876"
                 style="fill:#000000;fill-opacity:1;fill-rule:nonzero;stroke:none"
                 d="M 0,0 C -0.118,0.129 -0.243,0.254 -0.374,0.373 -0.49,0.5 -0.612,0.623 -0.741,0.741 -0.859,0.87 -0.984,0.995 -1.115,1.115 -1.232,1.243 -1.356,1.368 -1.487,1.487 -1.604,1.615 -1.729,1.739 -1.859,1.859 -1.977,1.987 -2.101,2.112 -2.231,2.231 -2.348,2.358 -2.471,2.481 -2.6,2.6 -2.719,2.73 -2.845,2.856 -2.978,2.979 -3.095,3.105 -3.218,3.229 -3.347,3.347 -3.465,3.476 -3.59,3.601 -3.722,3.721 -3.839,3.849 -3.962,3.973 -4.093,4.092 -4.207,4.217 -4.328,4.338 -4.455,4.455 -4.576,4.588 -4.704,4.716 -4.84,4.84 -4.954,4.965 -5.076,5.086 -5.203,5.202 -5.321,5.333 -5.447,5.458 -5.579,5.579 -5.698,5.709 -5.823,5.834 -5.956,5.955 -6.069,6.079 -6.19,6.2 -6.317,6.316 -6.437,6.446 -6.562,6.572 -6.694,6.694 -6.811,6.821 -6.935,6.945 -7.064,7.064 -7.183,7.193 -7.308,7.319 -7.439,7.439 -7.557,7.567 -7.68,7.69 -7.81,7.81 -7.927,7.938 -8.052,8.062 -8.182,8.182 -8.3,8.311 -8.425,8.436 -8.557,8.556 -8.672,8.682 -8.794,8.804 -8.921,8.921 -9.041,9.052 -9.167,9.178 -9.3,9.3 c -0.116,0.127 -0.239,0.25 -0.368,0.368 -0.118,0.129 -0.242,0.253 -0.373,0.373 -0.118,0.129 -0.242,0.253 -0.373,0.373 -0.117,0.127 -0.24,0.251 -0.369,0.369 -0.118,0.129 -0.243,0.254 -0.374,0.374 -0.116,0.127 -0.239,0.249 -0.367,0.367 -0.121,0.132 -0.247,0.259 -0.381,0.382 -0.116,0.126 -0.239,0.248 -0.367,0.366 -0.118,0.129 -0.243,0.253 -0.374,0.373 -0.117,0.127 -0.24,0.251 -0.371,0.371 -0.117,0.129 -0.24,0.252 -0.371,0.371 -0.118,0.13 -0.243,0.256 -0.375,0.376 -0.116,0.127 -0.239,0.25 -0.368,0.367 -0.118,0.129 -0.242,0.254 -0.373,0.374 -0.118,0.129 -0.243,0.254 -0.374,0.374 -0.115,0.125 -0.236,0.247 -0.364,0.364 -0.12,0.132 -0.248,0.259 -0.382,0.382 -0.115,0.126 -0.237,0.248 -0.365,0.365 -0.119,0.13 -0.244,0.255 -0.375,0.375 -0.117,0.128 -0.241,0.252 -0.371,0.371 -0.118,0.128 -0.241,0.251 -0.371,0.37 -0.119,0.13 -0.244,0.255 -0.375,0.376 -0.117,0.126 -0.239,0.249 -0.368,0.368 -0.119,0.13 -0.245,0.255 -0.378,0.377 -0.115,0.127 -0.237,0.249 -0.366,0.366 -0.118,0.13 -0.243,0.255 -0.374,0.375 -0.117,0.128 -0.241,0.252 -0.371,0.371 -0.117,0.128 -0.24,0.251 -0.371,0.371 -0.118,0.13 -0.244,0.256 -0.377,0.377 -0.116,0.127 -0.239,0.25 -0.368,0.368 -0.117,0.128 -0.242,0.252 -0.372,0.372 -0.117,0.128 -0.241,0.253 -0.372,0.372 -0.116,0.127 -0.24,0.25 -0.368,0.368 -0.12,0.13 -0.245,0.256 -0.377,0.377 -0.118,0.129 -0.242,0.253 -0.372,0.372 -0.118,0.128 -0.241,0.251 -0.371,0.371 -0.117,0.127 -0.241,0.252 -0.372,0.372 -0.117,0.128 -0.242,0.252 -0.372,0.372 -0.117,0.128 -0.241,0.251 -0.371,0.37 -0.117,0.129 -0.241,0.253 -0.372,0.373 -0.118,0.129 -0.242,0.253 -0.373,0.373 -0.117,0.128 -0.241,0.252 -0.371,0.371 -0.117,0.128 -0.242,0.252 -0.372,0.372 -0.117,0.128 -0.241,0.253 -0.372,0.372 -0.116,0.127 -0.239,0.25 -0.368,0.368 -0.12,0.132 -0.247,0.259 -0.381,0.381 -0.115,0.126 -0.236,0.247 -0.364,0.363 -0.119,0.13 -0.244,0.255 -0.374,0.375 -0.118,0.128 -0.242,0.253 -0.373,0.373 -0.118,0.128 -0.242,0.252 -0.374,0.373 -0.117,0.128 -0.241,0.252 -0.371,0.371 -0.116,0.128 -0.24,0.251 -0.369,0.37 -0.119,0.13 -0.244,0.255 -0.376,0.376 -0.116,0.126 -0.238,0.248 -0.367,0.366 -0.75,0.822 -1.759,1.447 -3.14,2.1 -4.981,2.348 -10.556,3.325 -16.433,3.325 -5.872,0 -11.449,-0.977 -16.432,-3.325 -3.469,-1.639 -4.608,-3.077 -5.128,-8.013 -0.468,-4.433 -1.594,-15.578 -1.594,-15.578 l 0,-21.264 0.371,0 0,-0.371 0.373,0 0,-0.373 0.372,0 0,-0.371 0.371,0 0,-0.373 0.372,0 0,-0.371 0.372,0 0,-0.372 0.372,0 0,-0.372 0.371,0 0,-0.373 0.372,0 0,-0.371 0.372,0 0,-0.372 0.339,0 c 0,-0.114 0.022,-0.222 0.033,-0.334 l 0,-0.038 0.004,0 c 0.098,-0.798 0.492,-1.496 1.076,-1.988 0.114,-0.135 0.237,-0.258 0.372,-0.372 0.114,-0.135 0.237,-0.258 0.373,-0.372 0.112,-0.134 0.235,-0.257 0.369,-0.37 0.114,-0.136 0.239,-0.261 0.375,-0.375 0.113,-0.134 0.236,-0.257 0.371,-0.37 0.113,-0.135 0.237,-0.259 0.372,-0.372 0.113,-0.135 0.236,-0.258 0.371,-0.372 0.113,-0.134 0.236,-0.258 0.371,-0.373 0.114,-0.134 0.238,-0.258 0.374,-0.373 0.113,-0.133 0.236,-0.257 0.371,-0.37 0.113,-0.135 0.237,-0.259 0.372,-0.372 0.114,-0.135 0.238,-0.259 0.372,-0.372 0.115,-0.136 0.239,-0.26 0.374,-0.374 0.113,-0.133 0.235,-0.255 0.369,-0.368 0.113,-0.135 0.236,-0.258 0.372,-0.372 0.113,-0.136 0.237,-0.259 0.373,-0.373 0.113,-0.135 0.237,-0.259 0.372,-0.372 0.113,-0.135 0.236,-0.259 0.371,-0.372 0.114,-0.135 0.237,-0.258 0.372,-0.372 0.114,-0.136 0.238,-0.259 0.374,-0.373 0.112,-0.134 0.235,-0.257 0.369,-0.37 0.113,-0.135 0.237,-0.258 0.373,-0.373 0.113,-0.134 0.237,-0.258 0.372,-0.372 0.113,-0.135 0.237,-0.259 0.372,-0.373 0.113,-0.133 0.236,-0.255 0.368,-0.368 0.116,-0.137 0.241,-0.262 0.377,-0.377 0.114,-0.134 0.236,-0.257 0.37,-0.369 0.114,-0.135 0.238,-0.259 0.373,-0.372 0.113,-0.136 0.237,-0.259 0.373,-0.373 0.112,-0.133 0.234,-0.256 0.367,-0.368 0.115,-0.137 0.241,-0.263 0.378,-0.378 0.112,-0.133 0.234,-0.254 0.367,-0.367 0.114,-0.135 0.238,-0.26 0.374,-0.374 0.114,-0.135 0.237,-0.258 0.372,-0.372 0.113,-0.134 0.236,-0.258 0.371,-0.372 0.115,-0.135 0.239,-0.26 0.376,-0.375 0.111,-0.131 0.232,-0.254 0.365,-0.365 0.115,-0.137 0.24,-0.261 0.375,-0.375 0.114,-0.135 0.238,-0.259 0.372,-0.372 0.114,-0.135 0.238,-0.259 0.372,-0.372 0.114,-0.135 0.238,-0.259 0.372,-0.372 0.113,-0.134 0.236,-0.257 0.37,-0.37 0.115,-0.137 0.241,-0.263 0.378,-0.378 0.112,-0.133 0.234,-0.254 0.366,-0.366 0.114,-0.135 0.238,-0.259 0.374,-0.373 0.113,-0.135 0.237,-0.259 0.372,-0.372 0.113,-0.135 0.237,-0.259 0.372,-0.373 0.113,-0.134 0.236,-0.257 0.37,-0.371 0.114,-0.135 0.238,-0.259 0.374,-0.374 0.114,-0.134 0.237,-0.258 0.373,-0.372 0.112,-0.134 0.235,-0.256 0.369,-0.369 0.114,-0.136 0.238,-0.259 0.373,-0.373 0.114,-0.136 0.238,-0.259 0.373,-0.373 0.114,-0.135 0.237,-0.258 0.371,-0.371 0.114,-0.135 0.238,-0.259 0.373,-0.372 0.113,-0.134 0.236,-0.257 0.37,-0.37 0.113,-0.136 0.237,-0.259 0.373,-0.373 0.113,-0.136 0.237,-0.259 0.373,-0.373 0.112,-0.133 0.234,-0.255 0.367,-0.368 0.115,-0.137 0.241,-0.263 0.378,-0.378 0.112,-0.132 0.233,-0.253 0.365,-0.366 0.115,-0.137 0.241,-0.262 0.379,-0.379 0.069,-0.082 0.15,-0.153 0.228,-0.227 22.64,2.371 40.806,19.753 44.378,42.013 C 0.619,-0.609 0.5,-0.489 0.373,-0.374 0.255,-0.245 0.131,-0.12 0,0" />
            </g>
          </g>
        </g>
      </g>
      <g
         transform="translate(-171.32401,486.8817)"
         id="g3878">
        <path
           inkscape:connector-curvature="0"
           id="path3880"
           style="fill:#ff6d3b;fill-opacity:1;fill-rule:nonzero;stroke:none"
           d="m 0,0 c -0.519,4.937 -1.661,6.374 -5.129,8.013 -4.981,2.348 -10.557,3.325 -16.434,3.325 -5.872,0 -11.449,-0.977 -16.431,-3.325 -3.469,-1.639 -4.609,-3.076 -5.128,-8.013 -0.469,-4.433 -1.595,-15.578 -1.595,-15.578 l 0,-21.264 4.057,0 6.212,0 25.773,0 6.211,0 4.058,0 0,21.264 C 1.594,-15.578 0.468,-4.433 0,0" />
      </g>
      <g
         transform="translate(-211.98411,446.327)"
         id="g3882">
        <path
           inkscape:connector-curvature="0"
           id="path3884"
           style="fill:#2a445e;fill-opacity:1;fill-rule:nonzero;stroke:none"
           d="m 0,0 c 0,-1.715 1.388,-3.107 3.105,-3.107 1.716,0 3.107,1.392 3.107,3.107 l 0,3.713 L 0,3.713 0,0 Z" />
      </g>
      <g
         transform="translate(-179.99881,446.327)"
         id="g3886">
        <path
           inkscape:connector-curvature="0"
           id="path3888"
           style="fill:#2a445e;fill-opacity:1;fill-rule:nonzero;stroke:none"
           d="m 0,0 c 0,-1.715 1.391,-3.107 3.106,-3.107 1.718,0 3.105,1.392 3.105,3.107 l 0,3.713 L 0,3.713 0,0 Z" />
      </g>
      <g
         transform="translate(-211.96261,460.9803)"
         id="g3890">
        <path
           inkscape:connector-curvature="0"
           id="path3892"
           style="fill:#ffd55c;fill-opacity:1;fill-rule:nonzero;stroke:none"
           d="M 0,0 C 0,1.707 1.387,3.09 3.096,3.09 4.806,3.09 6.188,1.707 6.188,0 6.188,-1.71 4.806,-3.095 3.096,-3.095 1.387,-3.095 0,-1.71 0,0" />
      </g>
      <g
         transform="translate(-179.98511,460.9803)"
         id="g3894">
        <path
           inkscape:connector-curvature="0"
           id="path3896"
           style="fill:#ffd55c;fill-opacity:1;fill-rule:nonzero;stroke:none"
           d="M 0,0 C 0,1.707 1.384,3.09 3.096,3.09 4.802,3.09 6.188,1.707 6.188,0 6.188,-1.71 4.802,-3.095 3.096,-3.095 1.384,-3.095 0,-1.71 0,0" />
      </g>
      <g
         transform="translate(-202.43921,491.2147)"
         id="g3898">
        <path
           inkscape:connector-curvature="0"
           id="path3900"
           style="fill:#ffffff;fill-opacity:1;fill-rule:nonzero;stroke:none"
           d="m 0,0 c -0.775,0 -1.408,0.633 -1.408,1.414 0,0.776 0.633,1.409 1.408,1.409 l 19.231,0 c 0.78,0 1.414,-0.633 1.414,-1.409 C 20.645,0.633 20.011,0 19.231,0 L 0,0 Z" />
      </g>
      <g
         transform="translate(-209.80931,471.6961)"
         id="g3902">
        <path
           inkscape:connector-curvature="0"
           id="path3904"
           style="fill:#21d8de;fill-opacity:1;fill-rule:nonzero;stroke:none"
           d="m 0,0 c -1.27,0 -2.196,1.02 -2.107,2.265 0.361,4.952 0.654,7.747 1.257,12.719 0.129,1.057 1.044,1.819 2.415,1.819 l 30.771,0 c 1.372,0 2.283,-0.847 2.419,-1.904 C 35.42,9.665 35.648,7.36 36.023,2.294 36.13,0.861 35.148,0 34.04,0 L 0,0 Z" />
      </g>
      <g
         transform="translate(-181.20681,477.9364)"
         id="g3906">
        <path
           inkscape:connector-curvature="0"
           id="path3908"
           style="fill:#2a445e;fill-opacity:1;fill-rule:nonzero;stroke:none"
           d="m 0,0 -6.06,0 c -2.033,0 -3.682,-1.65 -3.682,-3.686 l 0,-1.935 2.442,0 0,1.212 0.636,0 0,-1.212 7.268,0 0,1.212 0.639,0 0,-1.212 2.418,0 0.021,1.935 C 3.682,-1.65 2.031,0 0,0" />
      </g>
      <g
         transform="translate(-181.88061,482.9334)"
         id="g3910">
        <path
           inkscape:connector-curvature="0"
           id="path3912"
           style="fill:#2a445e;fill-opacity:1;fill-rule:nonzero;stroke:none"
           d="m 0,0 1.51,1.542 -4.231,0 -3.381,0 1.434,-1.467 c -0.304,-0.446 -0.479,-0.982 -0.479,-1.565 0,-1.542 1.249,-2.789 2.788,-2.789 1.539,0 2.791,1.247 2.791,2.789 0,0.548 -0.164,1.059 -0.439,1.49 L 0,0 Z" />
      </g>
      <g
         style="opacity:0.15899999;fill:#000000"
         transform="translate(-662.29336,268.67305)"
         id="g3914">
        <g
           style="fill:#000000"
           id="g3916" />
        <g
           style="fill:#000000"
           id="g3922">
          <g
             style="fill:#000000"
             id="g3924"
             clip-path="url(#clipPath3918)">
            <g
               style="fill:#000000"
               id="g3926"
               transform="translate(482.5576,177.917)">
              <path
                 inkscape:connector-curvature="0"
                 id="path3928"
                 style="fill:#000000;fill-opacity:1;fill-rule:nonzero;stroke:none"
                 d="m 0,0 c 0,-1.715 1.391,-3.107 3.106,-3.107 1.718,0 3.105,1.392 3.105,3.107 l 0,3.713 4.058,0 0,21.264 c 0,0 -1.126,11.145 -1.594,15.578 -0.519,4.936 -1.661,6.374 -5.129,8.012 -4.982,2.349 -10.556,3.326 -16.433,3.326 l 0,-48.18 L 0,3.713 0,0 Z" />
            </g>
          </g>
        </g>
      </g>
    </g>
  </g>
</svg>
